<svg xmlns="http://www.w3.org/2000/svg" width="256" height="256" viewBox="0 0 100 100"><rect width="100" height="100" rx="20" fill="#252a34"></rect><path fill="#fff" d="M41.36 77.31L41.36 77.31Q40.37 77.59 38.30 77.86Q36.23 78.13 34.07 78.13L34.07 78.13Q29.30 78.13 27.46 76.50Q25.61 74.89 25.61 70.66L25.61 70.66L25.61 22.69Q26.69 22.51 28.76 22.19Q30.83 21.88 32.90 21.88L32.90 21.88Q37.40 21.88 39.38 23.41Q41.36 24.94 41.36 29.35L41.36 29.35L41.36 43.93L58.64 43.93L58.64 22.69Q59.72 22.51 61.79 22.19Q63.86 21.88 65.93 21.88L65.93 21.88Q70.43 21.88 72.41 23.50Q74.39 25.12 74.39 29.53L74.39 29.53L74.39 77.31Q73.40 77.59 71.33 77.86Q69.26 78.13 67.10 78.13L67.10 78.13Q62.33 78.13 60.49 76.50Q58.64 74.89 58.64 70.66L58.64 70.66L58.64 56.34L41.36 56.34L41.36 77.31Z"></path></svg>