<svg width="24" height="24" viewBox="0 0 24 24" fill="none" xmlns="http://www.w3.org/2000/svg">
<path d="M5.5 6.7C5.5 5.57989 5.5 5.01984 5.71799 4.59202C5.90973 4.21569 6.21569 3.90973 6.59202 3.71799C7.01984 3.5 7.57989 3.5 8.7 3.5H12.1745C12.6637 3.5 12.9083 3.5 13.1385 3.55526C13.3425 3.60425 13.5376 3.68506 13.7166 3.79472C13.9184 3.9184 14.0914 4.09135 14.4373 4.43726L17.5627 7.56274C17.9086 7.90865 18.0816 8.0816 18.2053 8.28343C18.3149 8.46237 18.3957 8.65746 18.4447 8.86154C18.5 9.09171 18.5 9.3363 18.5 9.82548V17.3C18.5 18.4201 18.5 18.9802 18.282 19.408C18.0903 19.7843 17.7843 20.0903 17.408 20.282C16.9802 20.5 16.4201 20.5 15.3 20.5H8.7C7.57989 20.5 7.01984 20.5 6.59202 20.282C6.21569 20.0903 5.90973 19.7843 5.71799 19.408C5.5 18.9802 5.5 18.4201 5.5 17.3V6.7Z" stroke="#0D1117" stroke-width="2"/>
<path d="M12.5 3.5V6.3C12.5 7.42011 12.5 7.98016 12.718 8.40798C12.9097 8.78431 13.2157 9.09027 13.592 9.28201C14.0198 9.5 14.5799 9.5 15.7 9.5H18.5" stroke="#0D1117" stroke-width="2"/>
</svg>
